<svg width="61" height="62" xmlns="http://www.w3.org/2000/svg" xmlns:xlink="http://www.w3.org/1999/xlink" xml:space="preserve" overflow="hidden"><defs><clipPath id="clip0"><rect x="263" y="316" width="61" height="62"/></clipPath></defs><g clip-path="url(#clip0)" transform="translate(-263 -316)"><path d="M24.156 56.608C22.387 56.608 20.191 54.9 19.398 54.107L19.337 54.046C17.873 52.582 15.616 49.41 17.324 47.702L23.912 40.626C24.034 40.504 24.156 40.443 24.278 40.382 25.986 39.711 28.121 38.674 28.487 38.247 28.67 38.064 30.134 36.234 31.781 36.112 32.025 36.112 32.33 36.112 32.513 36.173 32.391 35.99 32.208 35.868 32.086 35.746 29.036 36.661 25.681 35.746 23.302 33.367 21.533 31.598 20.74 28.67 21.167 25.498 21.228 25.132 21.472 24.766 21.838 24.644 22.204 24.522 22.631 24.644 22.875 24.888L26.535 28.548 30.439 28.182 30.744 24.339 27.145 20.74C26.84 20.435 26.779 20.069 26.901 19.703 27.023 19.337 27.328 19.093 27.755 19.032 30.866 18.605 33.794 19.398 35.563 21.167 37.942 23.546 38.796 27.023 37.82 30.073 37.942 30.195 38.125 30.378 38.308 30.5L44.713 24.095 44.591 23.973C44.347 23.79 44.286 23.485 44.286 23.18 44.286 22.875 44.469 22.631 44.713 22.448L49.41 19.032C49.837 18.727 50.386 18.788 50.752 19.154L54.351 22.753C54.717 23.119 54.778 23.729 54.412 24.095L50.874 28.67C50.691 28.914 50.447 29.036 50.142 29.036 49.837 29.036 49.593 28.975 49.349 28.731L49.166 28.609 43.005 34.831C47.397 38.857 52.948 43.92 53.924 44.774 55.144 45.872 55.876 47.397 55.876 48.983 55.876 50.325 55.449 51.545 54.534 52.399 53.619 53.314 52.399 53.802 51.118 53.741 49.593 53.68 48.068 53.009 46.909 51.789 46.543 51.423 41.48 45.933 37.332 41.358 37.332 41.419 37.332 41.48 37.332 41.541 37.271 42.944 35.99 44.164 35.197 44.774 34.77 45.14 34.282 46.299 33.916 47.214 33.55 48.068 33.245 48.861 32.818 49.288 31.598 50.691 25.986 55.754 25.742 55.998 25.254 56.486 24.766 56.608 24.156 56.608ZM25.254 42.273 18.788 49.166C18.605 49.593 19.459 51.301 20.801 52.643L20.862 52.704C22.082 53.924 23.912 54.778 24.278 54.534 26.291 52.704 30.317 49.044 31.232 47.946 31.415 47.763 31.72 47.031 31.964 46.421 32.513 45.14 33.001 43.859 33.855 43.188 34.648 42.578 35.197 41.846 35.197 41.419 35.197 41.358 35.197 41.297 35.075 41.236 34.892 41.053 34.77 40.809 34.77 40.504 34.77 40.26 34.892 39.955 35.075 39.772L35.441 39.406C34.892 38.796 34.404 38.247 33.916 37.759L33.55 38.247C33.123 38.674 32.513 38.674 32.086 38.247 32.025 38.186 31.964 38.186 31.903 38.186 31.415 38.186 30.561 38.918 30.073 39.528 29.28 40.626 26.413 41.846 25.254 42.273ZM48.434 50.386C49.166 51.179 50.142 51.667 51.118 51.667 51.667 51.667 52.399 51.545 53.07 50.935 53.68 50.325 53.802 49.532 53.802 48.983 53.802 48.007 53.314 47.031 52.521 46.299 48.068 42.273 36.417 31.598 35.99 31.232 35.624 30.927 35.563 30.439 35.685 30.073 36.722 27.572 36.112 24.644 34.099 22.692 33.184 21.777 31.842 21.228 30.317 21.045L32.574 23.302C32.757 23.485 32.879 23.79 32.879 24.095L32.452 29.28C32.391 29.768 32.025 30.195 31.537 30.195L26.291 30.683C25.986 30.683 25.681 30.622 25.498 30.378L23.18 28.121C23.302 29.707 23.912 31.049 24.827 31.964 26.84 33.977 29.646 34.587 32.086 33.672 32.513 33.489 32.94 33.611 33.245 33.977 33.306 34.038 45.506 47.214 48.434 50.386ZM39.833 31.964C40.321 32.391 40.87 32.94 41.48 33.489L48.495 26.474C48.861 26.108 49.532 26.047 49.959 26.474L50.02 26.535 52.277 23.607 49.898 21.228 46.909 23.424 46.909 23.424C47.092 23.607 47.214 23.851 47.214 24.156 47.214 24.4 47.092 24.705 46.909 24.888L39.833 31.964Z" fill="#cc0000" transform="matrix(1 0 0 1.01639 263 316)"/><path d="M16.47 44.469C16.287 44.469 16.165 44.408 15.982 44.347 14.823 43.737 13.969 42.334 14.091 41.053 14.091 40.992 14.091 40.87 14.152 40.809L15.067 37.271C14.762 36.844 14.091 36.173 13.664 35.868L10.126 36.783C10.065 36.783 10.004 36.783 9.943 36.844 8.601 36.905 7.198 36.112 6.588 34.953 6.588 34.953 6.588 34.892 6.588 34.892L5.307 31.842C5.307 31.842 5.307 31.781 5.307 31.781 4.88 30.561 5.307 28.975 6.283 28.121 6.344 28.06 6.405 27.999 6.466 27.938L9.638 26.108C9.699 25.925 9.699 25.62 9.699 25.254 9.699 24.827 9.638 24.522 9.638 24.339L6.405 22.265C6.344 22.265 6.344 22.204 6.283 22.143 5.307 21.289 4.88 19.703 5.307 18.483 5.307 18.483 5.307 18.422 5.307 18.422L6.588 15.372C6.588 15.372 6.588 15.311 6.588 15.311 7.198 14.152 8.601 13.298 9.882 13.42 9.943 13.42 10.065 13.42 10.126 13.481L13.664 14.396C14.091 14.091 14.762 13.42 15.067 12.993L14.152 9.455C14.152 9.394 14.152 9.333 14.091 9.272 14.03 7.93 14.823 6.527 15.982 5.917 15.982 5.917 16.043 5.917 16.043 5.917L19.093 4.636C19.093 4.636 19.154 4.636 19.154 4.636 20.374 4.209 21.96 4.697 22.814 5.612 22.875 5.673 22.936 5.734 22.997 5.795L24.827 8.906C25.01 8.967 25.315 8.967 25.803 8.967 26.291 8.967 26.596 8.906 26.779 8.906L28.609 5.795C28.67 5.734 28.67 5.673 28.731 5.612 29.646 4.636 31.232 4.209 32.452 4.575 32.452 4.575 32.513 4.575 32.513 4.575L35.563 5.856C35.563 5.856 35.624 5.856 35.624 5.856 36.783 6.466 37.637 7.869 37.515 9.15 37.515 9.211 37.515 9.333 37.454 9.394L36.539 12.932C36.844 13.359 37.515 14.03 37.942 14.335L41.48 13.42C41.541 13.42 41.602 13.42 41.724 13.359 43.066 13.298 44.469 14.091 45.079 15.25 45.079 15.25 45.079 15.311 45.079 15.311L45.933 17.324C46.177 17.873 45.872 18.422 45.384 18.666 44.835 18.91 44.286 18.605 44.042 18.117L43.249 16.165C43.066 15.799 42.456 15.433 41.968 15.433L38.186 16.409C38.064 16.47 37.942 16.47 37.82 16.409 36.783 16.287 34.648 14.152 34.526 13.115 34.526 12.993 34.526 12.871 34.526 12.749L35.502 8.967C35.502 8.479 35.136 7.869 34.77 7.686L31.781 6.466C31.72 6.466 31.598 6.405 31.476 6.405 31.049 6.405 30.622 6.588 30.378 6.832L28.426 10.187C28.365 10.309 28.243 10.431 28.121 10.492 27.572 10.919 26.352 10.919 25.864 10.919 25.376 10.919 24.156 10.858 23.607 10.492 23.485 10.431 23.363 10.309 23.302 10.187L21.35 6.832C20.984 6.466 20.313 6.344 19.886 6.466L16.897 7.686C16.531 7.869 16.165 8.479 16.165 8.967L17.141 12.749C17.202 12.871 17.202 12.993 17.141 13.115 17.019 14.152 14.884 16.287 13.847 16.409 13.725 16.409 13.603 16.409 13.481 16.409L9.76 15.372C9.272 15.372 8.662 15.738 8.479 16.104L7.259 19.093C7.137 19.52 7.32 20.191 7.625 20.496L11.041 22.692C11.163 22.753 11.224 22.814 11.285 22.936 11.712 23.485 11.773 24.644 11.773 25.132 11.773 25.62 11.712 26.779 11.346 27.328 11.285 27.45 11.163 27.511 11.041 27.633L7.686 29.585C7.32 29.951 7.198 30.622 7.32 31.049L8.54 34.038C8.723 34.404 9.333 34.77 9.821 34.77L13.603 33.794C13.725 33.733 13.847 33.733 13.969 33.794 15.006 33.916 17.141 36.051 17.263 37.088 17.263 37.21 17.263 37.332 17.263 37.454L16.287 41.236C16.287 41.724 16.653 42.334 17.08 42.517 17.568 42.761 17.812 43.371 17.568 43.92 17.263 44.225 16.897 44.469 16.47 44.469Z" fill="#cc0000" transform="matrix(1 0 0 1.01639 263 316)"/></g></svg>