<svg width="300" height="50" xmlns="http://www.w3.org/2000/svg" xmlns:xlink="http://www.w3.org/1999/xlink" xml:space="preserve" overflow="hidden"><defs><clipPath id="clip0"><rect x="313" y="348" width="300" height="50"/></clipPath></defs><g clip-path="url(#clip0)" transform="translate(-313 -348)"><path d="M0 0 0-18.2947 24.4754-18.2947C24.4754-18.3576 24.4544 0.00419458 24.4754 0 24.4544 0.00419458 36.4719 0 36.5977 0 36.5977 0 36.6396-45.6894 36.5977-45.7419L24.4754-45.7419 24.4754-25.6079C24.4754-25.6708-3.72554e-15-25.6079-3.72554e-15-25.6079 0.0209729-25.6918-3.72554e-15-45.7566-3.72554e-15-45.7419L-12.1014-45.7419C-12.1014-45.7419-12.0384 0-12.1014 0L0 0Z" fill="#FFFFFF" transform="matrix(1 0 0 -1 553.308 350.138)"/><path d="M0 0 0-7.77675-18.54-7.77675-18.54-45.7419-30.6414-45.7419-30.6414-7.77675-49.1814-7.77675C-49.1814-7.77675-49.1605-0.0167783-49.1814-3.72554e-15-49.1605-0.0167783 0 0 0 0" fill="#FFFFFF" transform="matrix(1 0 0 -1 438.314 350.138)"/><path d="M0 0-8.4311-20.8114 8.4311-20.8114 0 0ZM28.7958-37.9651 15.3102-37.9651C15.3312-37.9651 11.3463-28.1351 11.3463-28.1351L-11.3673-28.1351C-11.3673-28.1351-15.2683-37.9798-15.3102-37.9651-15.3102-37.9798-28.8168-37.9651-28.8168-37.9651L-7.4244 7.77675C-7.4244 7.75577 7.4244 7.77675 7.4244 7.77675L28.7958-37.9651Z" fill="#FFFFFF" transform="matrix(1 0 0 -1 456.602 357.915)"/><path d="M599.513 395.873 611.635 395.873 611.635 350.132 599.513 350.132 599.513 395.873Z" fill="#FFFFFF"/><path d="M0 0C0 0-0.0209729-18.4289 0-18.2947L24.4754-18.2947C24.4754-18.3576 24.4334 0.00419458 24.4754 0 24.4334 0.00419458 36.4719 0 36.5977 0 36.5977 0 36.6396-45.6894 36.5977-45.7419L24.4754-45.7419 24.4754-25.6079C24.4754-25.6708-3.72554e-15-25.6079-3.72554e-15-25.6079-3.72554e-15-25.6918-0.0209729-45.7566-3.72554e-15-45.7419L-12.1223-45.7419C-12.1223-45.7419-12.0594 0-12.1223 0L0 0Z" fill="#FFFFFF" transform="matrix(1 0 0 -1 326.486 350.138)"/><path d="M372.691 395.873 384.792 395.873 384.792 350.132 372.691 350.132 372.691 395.873Z" fill="#FFFFFF"/><path d="M0 0C-1.06962 3.08511-1.63589 6.33591-1.63589 9.75869-1.63589 14.5636-0.79697 19.2175 1.51005 23.0933 3.87998 27.0718 7.52927 30.1422 11.9336 31.7739 16.1072 33.3511 20.6164 34.2173 25.3562 34.2173 30.7882 34.2173 35.9266 33.0281 40.6455 30.9979 45.0078 29.1167 48.3006 25.1842 49.2863 20.4297 49.496 19.4901 49.6428 18.5065 49.7058 17.5249L36.9962 17.5249C36.9542 18.7582 36.7655 19.9578 36.346 21.0421 35.3813 23.5714 33.263 25.5492 30.6624 26.3294 28.9845 26.8558 27.1809 27.1284 25.3562 27.1284 23.2589 27.1284 21.2246 26.774 19.358 26.0987 16.254 25.0081 13.8421 22.4892 12.7305 19.3831 11.6609 16.384 11.0737 13.1353 11.0737 9.75869 11.0737 6.95671 11.5351 4.26169 12.2272 1.72607 13.15-1.60233 15.6667-4.28476 18.8546-5.50748 20.868-6.26251 23.0702-6.70503 25.3562-6.70503 27.3067-6.70503 29.1733-6.41141 30.956-5.84095 33.3259-5.07754 35.2554-3.3305 36.2621-1.0843 36.9123 0.406874 37.2479 2.05954 37.2479 3.82546L50.0203 3.82546C49.9365 2.33009 49.7267 0.857791 49.4121-0.51803 48.3006-5.04608 45.1337-8.85056 40.9391-10.6102 36.1363-12.6173 30.8931-13.7876 25.3562-13.7876 21.0778-13.7876 16.9251-13.1164 13.0661-11.9 7.15176-10.0418 2.03437-5.78432 0 0" fill="#FFFFFF" transform="matrix(1 0 0 -1 484.979 383.215)"/></g></svg>