<svg id="visual" viewBox="0 0 900 450" width="900" height="450" xmlns="http://www.w3.org/2000/svg" xmlns:xlink="http://www.w3.org/1999/xlink" version="1.1"><g stroke-width="1" stroke-linejoin="bevel"><path d="M466.5 244L419.5 197L427.5 255Z" fill="#d9d9d9" stroke="#d9d9d9"></path><path d="M466.5 244L468.5 197L419.5 197Z" fill="#e1e1e1" stroke="#e1e1e1"></path><path d="M419.5 197L373.6 245L427.5 255Z" fill="#d7d7d7" stroke="#d7d7d7"></path><path d="M373.6 245L421.5 293L427.5 255Z" fill="#e1e1e1" stroke="#e1e1e1"></path><path d="M427.5 255L486.5 295L466.5 244Z" fill="#e1e1e1" stroke="#e1e1e1"></path><path d="M468.5 197L422.5 152L419.5 197Z" fill="#d4d4d4" stroke="#d4d4d4"></path><path d="M419.5 197L367.6 195L373.6 245Z" fill="#dcdcdc" stroke="#dcdcdc"></path><path d="M422.5 152L367.6 195L419.5 197Z" fill="#d9d9d9" stroke="#d9d9d9"></path><path d="M421.5 293L486.5 295L427.5 255Z" fill="#d9d9d9" stroke="#d9d9d9"></path><path d="M466.5 244L528.4 193L468.5 197Z" fill="#d3d3d3" stroke="#d3d3d3"></path><path d="M528.4 193L479.5 147L468.5 197Z" fill="#dfdfdf" stroke="#dfdfdf"></path><path d="M468.5 197L479.5 147L422.5 152Z" fill="#d4d4d4" stroke="#d4d4d4"></path><path d="M486.5 295L524.4 256L466.5 244Z" fill="#d7d7d7" stroke="#d7d7d7"></path><path d="M524.4 256L528.4 193L466.5 244Z" fill="#d3d3d3" stroke="#d3d3d3"></path><path d="M377.6 110L372.6 145L422.5 152Z" fill="#dedede" stroke="#dedede"></path><path d="M422.5 152L372.6 145L367.6 195Z" fill="#dcdcdc" stroke="#dcdcdc"></path><path d="M320.6 254L369.6 305L373.6 245Z" fill="#d6d6d6" stroke="#d6d6d6"></path><path d="M373.6 245L369.6 305L421.5 293Z" fill="#d3d3d3" stroke="#d3d3d3"></path><path d="M421.5 293L472.5 357L486.5 295Z" fill="#d7d7d7" stroke="#d7d7d7"></path><path d="M528.4 193L527.4 158L479.5 147Z" fill="#d9d9d9" stroke="#d9d9d9"></path><path d="M319.6 146L327.6 197L367.6 195Z" fill="#dbdbdb" stroke="#dbdbdb"></path><path d="M367.6 195L327.6 197L373.6 245Z" fill="#dedede" stroke="#dedede"></path><path d="M539.4 354L537.4 293L486.5 295Z" fill="#dedede" stroke="#dedede"></path><path d="M486.5 295L537.4 293L524.4 256Z" fill="#d9d9d9" stroke="#d9d9d9"></path><path d="M524.4 256L583.4 205L528.4 193Z" fill="#dedede" stroke="#dedede"></path><path d="M528.4 193L578.4 154L527.4 158Z" fill="#dfdfdf" stroke="#dfdfdf"></path><path d="M327.6 197L320.6 254L373.6 245Z" fill="#d7d7d7" stroke="#d7d7d7"></path><path d="M415.5 96L422.5 152L479.5 147Z" fill="#dbdbdb" stroke="#dbdbdb"></path><path d="M415.5 96L377.6 110L422.5 152Z" fill="#d3d3d3" stroke="#d3d3d3"></path><path d="M372.6 145L319.6 146L367.6 195Z" fill="#e1e1e1" stroke="#e1e1e1"></path><path d="M485.5 91L415.5 96L479.5 147Z" fill="#dedede" stroke="#dedede"></path><path d="M369.6 305L428.5 354L421.5 293Z" fill="#d9d9d9" stroke="#d9d9d9"></path><path d="M428.5 354L472.5 357L421.5 293Z" fill="#dbdbdb" stroke="#dbdbdb"></path><path d="M587.4 307L573.4 258L537.4 293Z" fill="#d9d9d9" stroke="#d9d9d9"></path><path d="M537.4 293L573.4 258L524.4 256Z" fill="#d3d3d3" stroke="#d3d3d3"></path><path d="M526.4 94L485.5 91L479.5 147Z" fill="#d1d1d1" stroke="#d1d1d1"></path><path d="M320.6 104L319.6 146L372.6 145Z" fill="#d1d1d1" stroke="#d1d1d1"></path><path d="M327.6 197L257.7 240L320.6 254Z" fill="#dbdbdb" stroke="#dbdbdb"></path><path d="M320.6 254L323.6 310L369.6 305Z" fill="#d6d6d6" stroke="#d6d6d6"></path><path d="M369.6 305L369.6 354L428.5 354Z" fill="#dbdbdb" stroke="#dbdbdb"></path><path d="M573.4 258L583.4 205L524.4 256Z" fill="#dfdfdf" stroke="#dfdfdf"></path><path d="M527.4 158L526.4 94L479.5 147Z" fill="#dfdfdf" stroke="#dfdfdf"></path><path d="M323.6 310L369.6 354L369.6 305Z" fill="#d9d9d9" stroke="#d9d9d9"></path><path d="M428.5 354L417.5 393L472.5 357Z" fill="#dcdcdc" stroke="#dcdcdc"></path><path d="M583.4 205L578.4 154L528.4 193Z" fill="#d1d1d1" stroke="#d1d1d1"></path><path d="M578.4 154L526.4 94L527.4 158Z" fill="#dfdfdf" stroke="#dfdfdf"></path><path d="M472.5 357L539.4 354L486.5 295Z" fill="#d1d1d1" stroke="#d1d1d1"></path><path d="M473.5 45L417.5 60L485.5 91Z" fill="#d4d4d4" stroke="#d4d4d4"></path><path d="M485.5 91L417.5 60L415.5 96Z" fill="#d3d3d3" stroke="#d3d3d3"></path><path d="M415.5 96L417.5 60L377.6 110Z" fill="#d6d6d6" stroke="#d6d6d6"></path><path d="M377.6 110L320.6 104L372.6 145Z" fill="#dedede" stroke="#dedede"></path><path d="M367.6 45L320.6 104L377.6 110Z" fill="#d3d3d3" stroke="#d3d3d3"></path><path d="M539.4 354L587.4 307L537.4 293Z" fill="#d4d4d4" stroke="#d4d4d4"></path><path d="M573.4 258L634.3 259L583.4 205Z" fill="#dcdcdc" stroke="#dcdcdc"></path><path d="M369.6 354L417.5 393L428.5 354Z" fill="#d9d9d9" stroke="#d9d9d9"></path><path d="M472.5 357L483.5 390L539.4 354Z" fill="#dfdfdf" stroke="#dfdfdf"></path><path d="M417.5 393L483.5 390L472.5 357Z" fill="#d7d7d7" stroke="#d7d7d7"></path><path d="M263.7 302L312.6 347L323.6 310Z" fill="#d4d4d4" stroke="#d4d4d4"></path><path d="M323.6 310L312.6 347L369.6 354Z" fill="#dfdfdf" stroke="#dfdfdf"></path><path d="M369.6 354L360.6 392L417.5 393Z" fill="#dbdbdb" stroke="#dbdbdb"></path><path d="M263.7 302L323.6 310L320.6 254Z" fill="#dedede" stroke="#dedede"></path><path d="M257.7 240L327.6 197L258.7 194Z" fill="#d1d1d1" stroke="#d1d1d1"></path><path d="M518.4 42L473.5 45L485.5 91Z" fill="#d7d7d7" stroke="#d7d7d7"></path><path d="M258.7 194L327.6 197L258.7 160Z" fill="#d1d1d1" stroke="#d1d1d1"></path><path d="M258.7 160L327.6 197L319.6 146Z" fill="#e1e1e1" stroke="#e1e1e1"></path><path d="M312.6 347L360.6 392L369.6 354Z" fill="#dcdcdc" stroke="#dcdcdc"></path><path d="M625.3 151L580.4 97L578.4 154Z" fill="#d3d3d3" stroke="#d3d3d3"></path><path d="M578.4 154L580.4 97L526.4 94Z" fill="#e1e1e1" stroke="#e1e1e1"></path><path d="M526.4 94L518.4 42L485.5 91Z" fill="#dbdbdb" stroke="#dbdbdb"></path><path d="M625.3 151L578.4 154L583.4 205Z" fill="#e1e1e1" stroke="#e1e1e1"></path><path d="M273.7 102L258.7 160L319.6 146Z" fill="#dbdbdb" stroke="#dbdbdb"></path><path d="M258.7 194L215.8 198L257.7 240Z" fill="#dfdfdf" stroke="#dfdfdf"></path><path d="M257.7 240L263.7 302L320.6 254Z" fill="#d3d3d3" stroke="#d3d3d3"></path><path d="M312.6 347L310.6 396L360.6 392Z" fill="#dbdbdb" stroke="#dbdbdb"></path><path d="M380.6 0L367.6 45L417.5 60Z" fill="#d3d3d3" stroke="#d3d3d3"></path><path d="M417.5 60L367.6 45L377.6 110Z" fill="#d9d9d9" stroke="#d9d9d9"></path><path d="M320.6 104L273.7 102L319.6 146Z" fill="#dcdcdc" stroke="#dcdcdc"></path><path d="M626.3 302L634.3 259L573.4 258Z" fill="#d1d1d1" stroke="#d1d1d1"></path><path d="M465.5 450L523.4 403L483.5 390Z" fill="#dfdfdf" stroke="#dfdfdf"></path><path d="M483.5 390L523.4 403L539.4 354Z" fill="#d3d3d3" stroke="#d3d3d3"></path><path d="M539.4 354L589.4 354L587.4 307Z" fill="#d1d1d1" stroke="#d1d1d1"></path><path d="M587.4 307L626.3 302L573.4 258Z" fill="#dbdbdb" stroke="#dbdbdb"></path><path d="M465.5 450L483.5 390L417.5 393Z" fill="#dfdfdf" stroke="#dfdfdf"></path><path d="M577.4 49L518.4 42L526.4 94Z" fill="#d7d7d7" stroke="#d7d7d7"></path><path d="M473.5 45L432.5 0L417.5 60Z" fill="#e1e1e1" stroke="#e1e1e1"></path><path d="M575.4 393L589.4 354L539.4 354Z" fill="#dfdfdf" stroke="#dfdfdf"></path><path d="M643.3 209L625.3 151L583.4 205Z" fill="#dcdcdc" stroke="#dcdcdc"></path><path d="M630.3 345L626.3 302L587.4 307Z" fill="#dcdcdc" stroke="#dcdcdc"></path><path d="M634.3 259L643.3 209L583.4 205Z" fill="#dbdbdb" stroke="#dbdbdb"></path><path d="M306.6 56L273.7 102L320.6 104Z" fill="#dfdfdf" stroke="#dfdfdf"></path><path d="M263.7 302L272.7 352L312.6 347Z" fill="#e1e1e1" stroke="#e1e1e1"></path><path d="M367.6 45L306.6 56L320.6 104Z" fill="#dcdcdc" stroke="#dcdcdc"></path><path d="M272.7 352L310.6 396L312.6 347Z" fill="#d3d3d3" stroke="#d3d3d3"></path><path d="M412.5 450L465.5 450L417.5 393Z" fill="#d4d4d4" stroke="#d4d4d4"></path><path d="M523.4 403L575.4 393L539.4 354Z" fill="#dfdfdf" stroke="#dfdfdf"></path><path d="M589.4 354L630.3 345L587.4 307Z" fill="#dfdfdf" stroke="#dfdfdf"></path><path d="M627.3 44L577.4 49L580.4 97Z" fill="#dcdcdc" stroke="#dcdcdc"></path><path d="M580.4 97L577.4 49L526.4 94Z" fill="#d9d9d9" stroke="#d9d9d9"></path><path d="M474.5 0L473.5 45L518.4 42Z" fill="#d6d6d6" stroke="#d6d6d6"></path><path d="M474.5 0L432.5 0L473.5 45Z" fill="#d3d3d3" stroke="#d3d3d3"></path><path d="M367.6 45L324.6 0L306.6 56Z" fill="#d4d4d4" stroke="#d4d4d4"></path><path d="M201.8 144L215.8 198L258.7 160Z" fill="#dcdcdc" stroke="#dcdcdc"></path><path d="M258.7 160L215.8 198L258.7 194Z" fill="#d7d7d7" stroke="#d7d7d7"></path><path d="M257.7 240L202.8 254L263.7 302Z" fill="#d1d1d1" stroke="#d1d1d1"></path><path d="M263.7 302L209.8 341L272.7 352Z" fill="#d1d1d1" stroke="#d1d1d1"></path><path d="M639.3 400L630.3 345L589.4 354Z" fill="#d1d1d1" stroke="#d1d1d1"></path><path d="M626.3 302L682.2 290L634.3 259Z" fill="#d7d7d7" stroke="#d7d7d7"></path><path d="M634.3 259L693.2 255L643.3 209Z" fill="#e1e1e1" stroke="#e1e1e1"></path><path d="M521.4 0L474.5 0L518.4 42Z" fill="#dfdfdf" stroke="#dfdfdf"></path><path d="M412.5 450L417.5 393L374.6 450Z" fill="#dfdfdf" stroke="#dfdfdf"></path><path d="M523.4 403L538.4 450L575.4 393Z" fill="#d1d1d1" stroke="#d1d1d1"></path><path d="M374.6 450L417.5 393L360.6 392Z" fill="#d1d1d1" stroke="#d1d1d1"></path><path d="M625.3 151L632.3 100L580.4 97Z" fill="#dbdbdb" stroke="#dbdbdb"></path><path d="M691.2 143L632.3 100L625.3 151Z" fill="#dbdbdb" stroke="#dbdbdb"></path><path d="M432.5 0L380.6 0L417.5 60Z" fill="#d3d3d3" stroke="#d3d3d3"></path><path d="M316.6 450L374.6 450L360.6 392Z" fill="#d9d9d9" stroke="#d9d9d9"></path><path d="M577.4 49L521.4 0L518.4 42Z" fill="#dfdfdf" stroke="#dfdfdf"></path><path d="M215.8 198L202.8 254L257.7 240Z" fill="#dfdfdf" stroke="#dfdfdf"></path><path d="M465.5 450L538.4 450L523.4 403Z" fill="#d1d1d1" stroke="#d1d1d1"></path><path d="M639.3 400L677.2 343L630.3 345Z" fill="#d7d7d7" stroke="#d7d7d7"></path><path d="M202.8 254L203.8 306L263.7 302Z" fill="#d3d3d3" stroke="#d3d3d3"></path><path d="M272.7 352L263.7 409L310.6 396Z" fill="#d9d9d9" stroke="#d9d9d9"></path><path d="M310.6 396L316.6 450L360.6 392Z" fill="#dbdbdb" stroke="#dbdbdb"></path><path d="M273.7 102L201.8 144L258.7 160Z" fill="#d9d9d9" stroke="#d9d9d9"></path><path d="M215.8 198L161.8 208L202.8 254Z" fill="#d9d9d9" stroke="#d9d9d9"></path><path d="M211.8 89L201.8 144L273.7 102Z" fill="#dcdcdc" stroke="#dcdcdc"></path><path d="M677.2 343L626.3 302L630.3 345Z" fill="#d7d7d7" stroke="#d7d7d7"></path><path d="M677.2 343L682.2 290L626.3 302Z" fill="#d3d3d3" stroke="#d3d3d3"></path><path d="M643.3 209L691.2 143L625.3 151Z" fill="#d1d1d1" stroke="#d1d1d1"></path><path d="M380.6 0L324.6 0L367.6 45Z" fill="#dfdfdf" stroke="#dfdfdf"></path><path d="M306.6 56L256.7 49L273.7 102Z" fill="#dbdbdb" stroke="#dbdbdb"></path><path d="M274.7 0L256.7 49L306.6 56Z" fill="#dfdfdf" stroke="#dfdfdf"></path><path d="M682.2 290L693.2 255L634.3 259Z" fill="#dfdfdf" stroke="#dfdfdf"></path><path d="M219.8 394L263.7 409L272.7 352Z" fill="#d6d6d6" stroke="#d6d6d6"></path><path d="M271.7 450L316.6 450L310.6 396Z" fill="#d9d9d9" stroke="#d9d9d9"></path><path d="M203.8 306L209.8 341L263.7 302Z" fill="#dfdfdf" stroke="#dfdfdf"></path><path d="M693.2 255L697.2 202L643.3 209Z" fill="#d9d9d9" stroke="#d9d9d9"></path><path d="M632.3 100L627.3 44L580.4 97Z" fill="#d6d6d6" stroke="#d6d6d6"></path><path d="M577.4 49L592.4 0L521.4 0Z" fill="#d4d4d4" stroke="#d4d4d4"></path><path d="M677.2 91L627.3 44L632.3 100Z" fill="#d6d6d6" stroke="#d6d6d6"></path><path d="M697.2 202L691.2 143L643.3 209Z" fill="#d1d1d1" stroke="#d1d1d1"></path><path d="M256.7 49L211.8 89L273.7 102Z" fill="#dbdbdb" stroke="#dbdbdb"></path><path d="M639.3 400L589.4 354L575.4 393Z" fill="#d1d1d1" stroke="#d1d1d1"></path><path d="M743.2 308L731.2 239L693.2 255Z" fill="#d7d7d7" stroke="#d7d7d7"></path><path d="M580.4 450L639.3 400L575.4 393Z" fill="#d3d3d3" stroke="#d3d3d3"></path><path d="M538.4 450L580.4 450L575.4 393Z" fill="#dedede" stroke="#dedede"></path><path d="M627.3 44L592.4 0L577.4 49Z" fill="#dcdcdc" stroke="#dcdcdc"></path><path d="M691.2 143L677.2 91L632.3 100Z" fill="#d7d7d7" stroke="#d7d7d7"></path><path d="M627.3 44L635.3 0L592.4 0Z" fill="#d1d1d1" stroke="#d1d1d1"></path><path d="M205.8 0L221.8 52L256.7 49Z" fill="#dfdfdf" stroke="#dfdfdf"></path><path d="M256.7 49L221.8 52L211.8 89Z" fill="#dbdbdb" stroke="#dbdbdb"></path><path d="M324.6 0L274.7 0L306.6 56Z" fill="#d4d4d4" stroke="#d4d4d4"></path><path d="M209.8 341L219.8 394L272.7 352Z" fill="#d9d9d9" stroke="#d9d9d9"></path><path d="M263.7 409L271.7 450L310.6 396Z" fill="#dbdbdb" stroke="#dbdbdb"></path><path d="M158.8 155L215.8 198L201.8 144Z" fill="#d1d1d1" stroke="#d1d1d1"></path><path d="M158.8 155L161.8 208L215.8 198Z" fill="#dcdcdc" stroke="#dcdcdc"></path><path d="M202.8 254L157.8 309L203.8 306Z" fill="#e1e1e1" stroke="#e1e1e1"></path><path d="M203.8 306L157.8 309L209.8 341Z" fill="#d9d9d9" stroke="#d9d9d9"></path><path d="M209.8 341L151.8 391L219.8 394Z" fill="#d9d9d9" stroke="#d9d9d9"></path><path d="M158.8 155L201.8 144L164.8 97Z" fill="#d1d1d1" stroke="#d1d1d1"></path><path d="M203.8 450L271.7 450L263.7 409Z" fill="#d7d7d7" stroke="#d7d7d7"></path><path d="M161.8 208L154.8 248L202.8 254Z" fill="#d9d9d9" stroke="#d9d9d9"></path><path d="M164.8 97L201.8 144L211.8 89Z" fill="#dfdfdf" stroke="#dfdfdf"></path><path d="M161.8 208L106.9 204L154.8 248Z" fill="#e1e1e1" stroke="#e1e1e1"></path><path d="M743.2 308L693.2 255L682.2 290Z" fill="#d3d3d3" stroke="#d3d3d3"></path><path d="M693.2 255L731.2 239L697.2 202Z" fill="#dedede" stroke="#dedede"></path><path d="M697.2 202L732.2 146L691.2 143Z" fill="#dcdcdc" stroke="#dcdcdc"></path><path d="M740.2 47L678.2 40L677.2 91Z" fill="#d9d9d9" stroke="#d9d9d9"></path><path d="M154.8 248L157.8 309L202.8 254Z" fill="#d7d7d7" stroke="#d7d7d7"></path><path d="M678.2 40L635.3 0L627.3 44Z" fill="#d4d4d4" stroke="#d4d4d4"></path><path d="M748.2 96L677.2 91L691.2 143Z" fill="#d9d9d9" stroke="#d9d9d9"></path><path d="M677.2 91L678.2 40L627.3 44Z" fill="#d6d6d6" stroke="#d6d6d6"></path><path d="M639.3 400L697.2 408L677.2 343Z" fill="#d4d4d4" stroke="#d4d4d4"></path><path d="M677.2 343L743.2 308L682.2 290Z" fill="#dedede" stroke="#dedede"></path><path d="M580.4 450L639.3 450L639.3 400Z" fill="#dbdbdb" stroke="#dbdbdb"></path><path d="M731.2 239L741.2 208L697.2 202Z" fill="#dfdfdf" stroke="#dfdfdf"></path><path d="M741.2 208L732.2 146L697.2 202Z" fill="#dfdfdf" stroke="#dfdfdf"></path><path d="M151.8 41L211.8 89L221.8 52Z" fill="#d3d3d3" stroke="#d3d3d3"></path><path d="M151.8 41L164.8 97L211.8 89Z" fill="#dbdbdb" stroke="#dbdbdb"></path><path d="M157.8 309L150.8 346L209.8 341Z" fill="#d6d6d6" stroke="#d6d6d6"></path><path d="M219.8 394L203.8 450L263.7 409Z" fill="#e1e1e1" stroke="#e1e1e1"></path><path d="M109.9 344L150.8 346L157.8 309Z" fill="#d3d3d3" stroke="#d3d3d3"></path><path d="M742.2 343L743.2 308L677.2 343Z" fill="#d9d9d9" stroke="#d9d9d9"></path><path d="M800.1 249L795.1 191L741.2 208Z" fill="#dbdbdb" stroke="#dbdbdb"></path><path d="M685.2 450L697.2 408L639.3 400Z" fill="#d9d9d9" stroke="#d9d9d9"></path><path d="M274.7 0L205.8 0L256.7 49Z" fill="#d1d1d1" stroke="#d1d1d1"></path><path d="M697.2 408L742.2 343L677.2 343Z" fill="#d4d4d4" stroke="#d4d4d4"></path><path d="M151.8 391L203.8 450L219.8 394Z" fill="#e1e1e1" stroke="#e1e1e1"></path><path d="M150.8 346L151.8 391L209.8 341Z" fill="#d9d9d9" stroke="#d9d9d9"></path><path d="M97.9 157L106.9 204L158.8 155Z" fill="#d1d1d1" stroke="#d1d1d1"></path><path d="M158.8 155L106.9 204L161.8 208Z" fill="#d3d3d3" stroke="#d3d3d3"></path><path d="M154.8 248L103.9 258L157.8 309Z" fill="#d7d7d7" stroke="#d7d7d7"></path><path d="M150.8 346L109.9 344L151.8 391Z" fill="#dbdbdb" stroke="#dbdbdb"></path><path d="M97.9 157L158.8 155L101.9 106Z" fill="#dbdbdb" stroke="#dbdbdb"></path><path d="M639.3 450L685.2 450L639.3 400Z" fill="#dbdbdb" stroke="#dbdbdb"></path><path d="M697.2 408L743.2 395L742.2 343Z" fill="#d7d7d7" stroke="#d7d7d7"></path><path d="M732.2 146L748.2 96L691.2 143Z" fill="#e1e1e1" stroke="#e1e1e1"></path><path d="M678.2 40L695.2 0L635.3 0Z" fill="#d7d7d7" stroke="#d7d7d7"></path><path d="M799.1 151L748.2 96L732.2 146Z" fill="#dedede" stroke="#dedede"></path><path d="M795.1 191L732.2 146L741.2 208Z" fill="#e1e1e1" stroke="#e1e1e1"></path><path d="M106.9 204L103.9 258L154.8 248Z" fill="#dedede" stroke="#dedede"></path><path d="M740.2 47L695.2 0L678.2 40Z" fill="#d1d1d1" stroke="#d1d1d1"></path><path d="M205.8 0L151.8 41L221.8 52Z" fill="#d9d9d9" stroke="#d9d9d9"></path><path d="M101.9 106L158.8 155L164.8 97Z" fill="#d7d7d7" stroke="#d7d7d7"></path><path d="M106.9 204L52.9 203L103.9 258Z" fill="#dedede" stroke="#dedede"></path><path d="M736.2 450L743.2 395L697.2 408Z" fill="#dbdbdb" stroke="#dbdbdb"></path><path d="M802.1 342L790.1 291L743.2 308Z" fill="#d4d4d4" stroke="#d4d4d4"></path><path d="M743.2 308L790.1 291L731.2 239Z" fill="#e1e1e1" stroke="#e1e1e1"></path><path d="M748.2 96L740.2 47L677.2 91Z" fill="#dbdbdb" stroke="#dbdbdb"></path><path d="M53.9 298L97.9 292L103.9 258Z" fill="#e1e1e1" stroke="#e1e1e1"></path><path d="M103.9 258L97.9 292L157.8 309Z" fill="#d6d6d6" stroke="#d6d6d6"></path><path d="M97.9 292L109.9 344L157.8 309Z" fill="#d3d3d3" stroke="#d3d3d3"></path><path d="M151.8 391L150.8 450L203.8 450Z" fill="#d3d3d3" stroke="#d3d3d3"></path><path d="M802.1 342L743.2 308L742.2 343Z" fill="#dfdfdf" stroke="#dfdfdf"></path><path d="M748.2 96L784.1 40L740.2 47Z" fill="#dfdfdf" stroke="#dfdfdf"></path><path d="M800.1 249L741.2 208L731.2 239Z" fill="#d3d3d3" stroke="#d3d3d3"></path><path d="M151.8 41L101.9 106L164.8 97Z" fill="#d7d7d7" stroke="#d7d7d7"></path><path d="M790.1 291L800.1 249L731.2 239Z" fill="#d7d7d7" stroke="#d7d7d7"></path><path d="M205.8 0L150.8 0L151.8 41Z" fill="#d9d9d9" stroke="#d9d9d9"></path><path d="M151.8 41L104.9 41L101.9 106Z" fill="#d1d1d1" stroke="#d1d1d1"></path><path d="M843.1 202L799.1 151L795.1 191Z" fill="#dcdcdc" stroke="#dcdcdc"></path><path d="M795.1 191L799.1 151L732.2 146Z" fill="#dcdcdc" stroke="#dcdcdc"></path><path d="M114.9 406L150.8 450L151.8 391Z" fill="#d7d7d7" stroke="#d7d7d7"></path><path d="M784.1 40L734.2 0L740.2 47Z" fill="#dcdcdc" stroke="#dcdcdc"></path><path d="M740.2 47L734.2 0L695.2 0Z" fill="#d7d7d7" stroke="#d7d7d7"></path><path d="M109.9 344L114.9 406L151.8 391Z" fill="#d4d4d4" stroke="#d4d4d4"></path><path d="M58.9 356L114.9 406L109.9 344Z" fill="#d7d7d7" stroke="#d7d7d7"></path><path d="M685.2 450L736.2 450L697.2 408Z" fill="#d1d1d1" stroke="#d1d1d1"></path><path d="M743.2 395L802.1 342L742.2 343Z" fill="#dfdfdf" stroke="#dfdfdf"></path><path d="M857.1 158L802.1 106L799.1 151Z" fill="#d7d7d7" stroke="#d7d7d7"></path><path d="M799.1 151L802.1 106L748.2 96Z" fill="#d7d7d7" stroke="#d7d7d7"></path><path d="M857.1 289L848.1 246L800.1 249Z" fill="#dedede" stroke="#dedede"></path><path d="M800.1 249L843.1 202L795.1 191Z" fill="#dcdcdc" stroke="#dcdcdc"></path><path d="M790.1 406L802.1 342L743.2 395Z" fill="#dedede" stroke="#dedede"></path><path d="M150.8 0L104.9 41L151.8 41Z" fill="#dedede" stroke="#dedede"></path><path d="M51.9 144L52.9 203L97.9 157Z" fill="#dedede" stroke="#dedede"></path><path d="M51.9 144L97.9 157L101.9 106Z" fill="#d3d3d3" stroke="#d3d3d3"></path><path d="M97.9 157L52.9 203L106.9 204Z" fill="#d1d1d1" stroke="#d1d1d1"></path><path d="M97.9 292L53.9 298L109.9 344Z" fill="#d3d3d3" stroke="#d3d3d3"></path><path d="M802.1 106L784.1 40L748.2 96Z" fill="#d3d3d3" stroke="#d3d3d3"></path><path d="M41.9 245L53.9 298L103.9 258Z" fill="#d3d3d3" stroke="#d3d3d3"></path><path d="M736.2 450L790.1 406L743.2 395Z" fill="#d6d6d6" stroke="#d6d6d6"></path><path d="M47.9 450L115.9 450L114.9 406Z" fill="#d4d4d4" stroke="#d4d4d4"></path><path d="M114.9 406L115.9 450L150.8 450Z" fill="#d4d4d4" stroke="#d4d4d4"></path><path d="M54.9 94L51.9 144L101.9 106Z" fill="#dedede" stroke="#dedede"></path><path d="M52.9 203L41.9 245L103.9 258Z" fill="#d6d6d6" stroke="#d6d6d6"></path><path d="M0 250L41.9 245L0 197Z" fill="#d4d4d4" stroke="#d4d4d4"></path><path d="M41.9 400L58.9 356L0 350Z" fill="#e1e1e1" stroke="#e1e1e1"></path><path d="M53.9 298L58.9 356L109.9 344Z" fill="#dcdcdc" stroke="#dcdcdc"></path><path d="M848.1 246L843.1 202L800.1 249Z" fill="#dfdfdf" stroke="#dfdfdf"></path><path d="M839.1 39L797.1 0L784.1 40Z" fill="#d3d3d3" stroke="#d3d3d3"></path><path d="M800.1 249L790.1 291L857.1 289Z" fill="#e1e1e1" stroke="#e1e1e1"></path><path d="M104.9 41L54.9 94L101.9 106Z" fill="#d9d9d9" stroke="#d9d9d9"></path><path d="M0 197L41.9 245L52.9 203Z" fill="#d6d6d6" stroke="#d6d6d6"></path><path d="M857.1 289L790.1 291L802.1 342Z" fill="#dfdfdf" stroke="#dfdfdf"></path><path d="M150.8 0L95.9 0L104.9 41Z" fill="#d6d6d6" stroke="#d6d6d6"></path><path d="M104.9 41L48.9 47L54.9 94Z" fill="#dcdcdc" stroke="#dcdcdc"></path><path d="M839.1 39L784.1 40L802.1 106Z" fill="#d6d6d6" stroke="#d6d6d6"></path><path d="M784.1 40L797.1 0L734.2 0Z" fill="#dbdbdb" stroke="#dbdbdb"></path><path d="M857.1 342L857.1 289L802.1 342Z" fill="#d7d7d7" stroke="#d7d7d7"></path><path d="M900 191L857.1 158L843.1 202Z" fill="#d6d6d6" stroke="#d6d6d6"></path><path d="M900 191L843.1 202L848.1 246Z" fill="#d9d9d9" stroke="#d9d9d9"></path><path d="M843.1 202L857.1 158L799.1 151Z" fill="#d7d7d7" stroke="#d7d7d7"></path><path d="M736.2 450L804.1 450L790.1 406Z" fill="#d1d1d1" stroke="#d1d1d1"></path><path d="M857.1 396L857.1 342L802.1 342Z" fill="#dbdbdb" stroke="#dbdbdb"></path><path d="M95.9 0L48.9 47L104.9 41Z" fill="#dfdfdf" stroke="#dfdfdf"></path><path d="M0 197L52.9 203L51.9 144Z" fill="#d1d1d1" stroke="#d1d1d1"></path><path d="M857.1 396L802.1 342L790.1 406Z" fill="#dedede" stroke="#dedede"></path><path d="M857.1 158L855.1 98L802.1 106Z" fill="#d1d1d1" stroke="#d1d1d1"></path><path d="M58.9 356L41.9 400L114.9 406Z" fill="#d3d3d3" stroke="#d3d3d3"></path><path d="M0 350L58.9 356L53.9 298Z" fill="#dcdcdc" stroke="#dcdcdc"></path><path d="M855.1 98L839.1 39L802.1 106Z" fill="#e1e1e1" stroke="#e1e1e1"></path><path d="M0 197L51.9 144L0 149Z" fill="#e1e1e1" stroke="#e1e1e1"></path><path d="M41.9 245L0 303L53.9 298Z" fill="#e1e1e1" stroke="#e1e1e1"></path><path d="M0 149L51.9 144L0 100Z" fill="#d4d4d4" stroke="#d4d4d4"></path><path d="M0 100L51.9 144L54.9 94Z" fill="#dbdbdb" stroke="#dbdbdb"></path><path d="M0 250L0 303L41.9 245Z" fill="#d4d4d4" stroke="#d4d4d4"></path><path d="M95.9 0L48.9 0L48.9 47Z" fill="#d1d1d1" stroke="#d1d1d1"></path><path d="M48.9 47L0 100L54.9 94Z" fill="#d1d1d1" stroke="#d1d1d1"></path><path d="M841.1 450L857.1 396L790.1 406Z" fill="#d1d1d1" stroke="#d1d1d1"></path><path d="M0 450L47.9 450L41.9 400Z" fill="#d9d9d9" stroke="#d9d9d9"></path><path d="M41.9 400L47.9 450L114.9 406Z" fill="#dfdfdf" stroke="#dfdfdf"></path><path d="M0 47L0 100L48.9 47Z" fill="#dbdbdb" stroke="#dbdbdb"></path><path d="M0 303L0 350L53.9 298Z" fill="#d7d7d7" stroke="#d7d7d7"></path><path d="M804.1 450L841.1 450L790.1 406Z" fill="#dfdfdf" stroke="#dfdfdf"></path><path d="M900 305L857.1 289L857.1 342Z" fill="#d3d3d3" stroke="#d3d3d3"></path><path d="M900 305L900 256L857.1 289Z" fill="#d1d1d1" stroke="#d1d1d1"></path><path d="M857.1 289L900 256L848.1 246Z" fill="#dedede" stroke="#dedede"></path><path d="M857.1 158L900 140L855.1 98Z" fill="#dfdfdf" stroke="#dfdfdf"></path><path d="M900 0L851.1 0L839.1 39Z" fill="#dbdbdb" stroke="#dbdbdb"></path><path d="M900 305L857.1 342L900 356Z" fill="#d6d6d6" stroke="#d6d6d6"></path><path d="M900 256L900 191L848.1 246Z" fill="#dcdcdc" stroke="#dcdcdc"></path><path d="M900 356L857.1 342L857.1 396Z" fill="#d4d4d4" stroke="#d4d4d4"></path><path d="M900 191L900 140L857.1 158Z" fill="#e1e1e1" stroke="#e1e1e1"></path><path d="M900 60L839.1 39L855.1 98Z" fill="#d1d1d1" stroke="#d1d1d1"></path><path d="M839.1 39L851.1 0L797.1 0Z" fill="#d3d3d3" stroke="#d3d3d3"></path><path d="M0 0L0 47L48.9 47Z" fill="#d3d3d3" stroke="#d3d3d3"></path><path d="M0 350L0 402L41.9 400Z" fill="#dbdbdb" stroke="#dbdbdb"></path><path d="M900 140L900 107L855.1 98Z" fill="#d4d4d4" stroke="#d4d4d4"></path><path d="M900 392L900 356L857.1 396Z" fill="#d7d7d7" stroke="#d7d7d7"></path><path d="M900 107L900 60L855.1 98Z" fill="#dcdcdc" stroke="#dcdcdc"></path><path d="M900 450L900 392L857.1 396Z" fill="#d6d6d6" stroke="#d6d6d6"></path><path d="M48.9 0L0 0L48.9 47Z" fill="#d7d7d7" stroke="#d7d7d7"></path><path d="M0 402L0 450L41.9 400Z" fill="#dbdbdb" stroke="#dbdbdb"></path><path d="M900 60L900 0L839.1 39Z" fill="#d1d1d1" stroke="#d1d1d1"></path><path d="M841.1 450L900 450L857.1 396Z" fill="#d9d9d9" stroke="#d9d9d9"></path></g></svg>